<?xml version="1.0" encoding="UTF-8" standalone="no"?>
<svg xmlns="http://www.w3.org/2000/svg" viewBox="0 0 100 100" width="80" height="80">
  <g transform="translate(0, 0)">
    <path d="M20,25 C20,25 35,20 50,20 C65,20 80,25 80,25 L90,40 C90,40 85,30 50,30 C15,30 10,40 10,40 L20,25 Z" fill="#663300" stroke="#000000" stroke-width="2" />
    <path d="M10,40 C10,40 10,70 50,85 C90,70 90,40 90,40" fill="none" stroke="#000000" stroke-width="2" />
    <path d="M15,40 C15,40 15,68 50,80 C85,68 85,40 85,40" fill="#ffd700" stroke="#d4af37" stroke-width="2" />
    <circle cx="25" cy="50" r="4" fill="#663300" />
    <circle cx="25" cy="65" r="4" fill="#663300" />
    <circle cx="75" cy="50" r="4" fill="#663300" />
    <circle cx="75" cy="65" r="4" fill="#663300" />
  </g>
</svg>