<?xml version="1.0" encoding="UTF-8" standalone="no"?>
<svg xmlns="http://www.w3.org/2000/svg" viewBox="0 0 100 100" width="80" height="80">
  <g transform="translate(0, 0)">
    <path d="M50,10 C25,10 10,30 10,50 C10,70 25,90 50,90 C75,90 90,70 90,50 C90,30 75,10 50,10 Z" fill="#ff3333" stroke="#000000" stroke-width="3" />
    <path d="M50,15 C30,15 15,30 15,50 C15,70 30,85 50,85 C70,85 85,70 85,50 C85,30 70,15 50,15 Z" fill="#ff3333" stroke="none" />
    <path d="M50,15 L50,85" fill="none" stroke="#ffcccc" stroke-width="2" />
    <path d="M15,50 L85,50" fill="none" stroke="#ffcccc" stroke-width="2" />
    <path d="M25,25 L75,75" fill="none" stroke="#ffcccc" stroke-width="2" />
    <path d="M25,75 L75,25" fill="none" stroke="#ffcccc" stroke-width="2" />
    <circle cx="40" cy="35" r="3" fill="#000000" />
    <circle cx="60" cy="35" r="3" fill="#000000" />
    <circle cx="30" cy="50" r="3" fill="#000000" />
    <circle cx="70" cy="50" r="3" fill="#000000" />
    <circle cx="40" cy="65" r="3" fill="#000000" />
    <circle cx="60" cy="65" r="3" fill="#000000" />
  </g>
</svg>