<?xml version="1.0" encoding="UTF-8" standalone="no"?>
<svg xmlns="http://www.w3.org/2000/svg" viewBox="0 0 100 100" width="80" height="80">
  <g transform="translate(0, 0)">
    <path d="M40,20 C35,10 65,10 60,20 L60,30 C70,30 80,50 80,65 C80,80 65,90 50,90 C35,90 20,80 20,65 C20,50 30,30 40,30 Z" fill="#c9b037" stroke="#000000" stroke-width="2" />
    <path d="M40,20 C40,20 60,20 60,20 L60,30 C60,30 40,30 40,30 Z" fill="#aa8800" stroke="#000000" stroke-width="1" />
    <circle cx="40" cy="45" r="6" fill="#ffcc00" stroke="#aa8800" stroke-width="1" />
    <circle cx="60" cy="45" r="6" fill="#ffcc00" stroke="#aa8800" stroke-width="1" />
    <circle cx="50" cy="60" r="6" fill="#ffcc00" stroke="#aa8800" stroke-width="1" />
    <text x="50" y="65" font-family="Arial, sans-serif" font-size="12" font-weight="bold" text-anchor="middle" fill="#000000">$</text>
  </g>
</svg>