<?xml version="1.0" encoding="UTF-8" standalone="no"?>
<svg xmlns="http://www.w3.org/2000/svg" viewBox="0 0 100 100" width="80" height="80">
  <g transform="translate(0, 0)">
    <path d="M90,50 C90,22 65,10 50,10 C35,10 10,22 10,50 C10,78 20,90 50,90 C80,90 90,78 90,50 Z" fill="#33aa33" stroke="#000000" stroke-width="3" />
    <path d="M80,50 C80,30 65,20 50,20 C35,20 20,30 20,50 C20,70 30,80 50,80 C70,80 80,70 80,50 Z" fill="#ff3333" stroke="none" />
    <circle cx="30" cy="40" r="3" fill="#111111" />
    <circle cx="40" cy="45" r="3" fill="#111111" />
    <circle cx="50" cy="40" r="3" fill="#111111" />
    <circle cx="60" cy="45" r="3" fill="#111111" />
    <circle cx="70" cy="40" r="3" fill="#111111" />
    <circle cx="30" cy="60" r="3" fill="#111111" />
    <circle cx="40" cy="55" r="3" fill="#111111" />
    <circle cx="50" cy="60" r="3" fill="#111111" />
    <circle cx="60" cy="55" r="3" fill="#111111" />
    <circle cx="70" cy="60" r="3" fill="#111111" />
  </g>
</svg>